<svg xmlns="http://www.w3.org/2000/svg" viewBox="0 0 512 512">
  <defs>
    <linearGradient id="g" x1="0" y1="0" x2="1" y2="1">
      <stop offset="0" stop-color="#63e6ff"/>
      <stop offset="1" stop-color="#9a7cff"/>
    </linearGradient>
    <filter id="glow" x="-50%" y="-50%" width="200%" height="200%">
      <feGaussianBlur stdDeviation="14" result="b"/>
      <feMerge><feMergeNode in="b"/><feMergeNode in="SourceGraphic"/></feMerge>
    </filter>
  </defs>
  <rect width="512" height="512" rx="108" fill="#0b0d14"/>
  <rect x="28" y="28" width="456" height="456" rx="88" fill="#11151f" stroke="#2b3346" stroke-width="12"/>
  <g opacity=".18" fill="#63e6ff">
    <rect x="92" y="92" width="40" height="40"/><rect x="140" y="92" width="40" height="40"/>
    <rect x="92" y="140" width="40" height="40"/><rect x="380" y="332" width="40" height="40"/>
    <rect x="332" y="380" width="40" height="40"/><rect x="380" y="380" width="40" height="40"/>
  </g>
  <path d="M142 112v236l62-61 48 112 50-22-48-109h91L142 112z"
        fill="url(#g)" stroke="#eef2ff" stroke-width="18" stroke-linejoin="miter" filter="url(#glow)"/>
  <rect x="112" y="104" width="34" height="34" fill="#63e6ff"/>
  <rect x="146" y="138" width="34" height="34" fill="#63e6ff"/>
  <rect x="180" y="172" width="34" height="34" fill="#7cc9ff"/>
</svg>